<svg width="227" height="177" viewBox="0 0 227 177" fill="none" xmlns="http://www.w3.org/2000/svg">
<rect x="64" y="60" width="163" height="116.2" rx="15" fill="#F7981F"/>
<path d="M180 30C188.284 30 195 36.7157 195 45V50H67C58.7157 50 52 56.7157 52 65V146.2H47C38.7158 146.2 32.0001 139.484 32 131.2V45C32 36.7157 38.7157 30 47 30H180Z" fill="#F7981F"/>
<path d="M148 0C156.284 0 163 6.71573 163 15V20H35C26.7157 20 20 26.7157 20 35V116.2H15C6.71579 116.2 0.000106559 109.484 0 101.2V15C1.45271e-06 6.71573 6.71573 1.57112e-08 15 0H148Z" fill="#F7981F"/>
</svg>
